<?xml version="1.0" standalone="no"?><!DOCTYPE svg PUBLIC "-//W3C//DTD SVG 1.1//EN" "http://www.w3.org/Graphics/SVG/1.1/DTD/svg11.dtd"><svg t="1779861669421" class="icon" viewBox="0 0 1024 1024" version="1.1" xmlns="http://www.w3.org/2000/svg" p-id="4960" xmlns:xlink="http://www.w3.org/1999/xlink" width="200" height="200"><path d="M614.8 142.5v198l325.6 193.1c11.9 7.1 19.2 19.9 19.2 33.7v74.5c0 24.4-22 42.8-46 38.6l-307.5-52.7 10.9 187 117.5 80.5v89.6c0 26.3-25.4 45.1-50.6 37.4l-173.5-53.1-172.3 53c-25.2 7.7-50.7-11.1-50.7-37.4v-89.5l117.5-80.5 10.9-187.1-305.3 52.7c-24 4.3-46.1-14.2-46.1-38.5v-74.6c0-13.8 7.3-26.6 19.1-33.6L407 340.5v-198C407 78.3 485.9 0 510.4 0c24.4 0 104.4 76.1 104.4 142.5z" fill="#e98f36" p-id="4961" data-spm-anchor-id="a313x.search_index.0.i0.1a6b3a81QA4aU3" class=""></path></svg>